<svg t="1715584613267" class="icon" viewBox="0 0 1024 1024" version="1.1" xmlns="http://www.w3.org/2000/svg" p-id="7912"
     width="200" height="200">
  <path
    d="M534.87616 737.64864c10.60864-89.16992 57.48736-139.50976 127.67232-179.83488l-6.51264 2.10944v-45.3632L621.8752 440.32l-45.28128-71.55712-92.24192-42.31168h-120.75008l-32.68608 8.8064-100.5568 24.80128-38.07232 46.592-23.61344 91.83232v176.96768l-0.04096 168.83712H558.4896l3.23584-8.84736c-19.43552-27.40224-31.04768-62.3616-26.84928-97.792z"
    fill="#A2E7F6" p-id="7913"></path>
  <path
    d="M841.87136 937.96352c-22.91712 9.68704-47.9232 15.68768-74.36288 16.71168-42.1888 1.6384-77.86496 4.68992-111.47264-15.11424-41.96352-1.35168-90.39872 0-136.47872 0-254.03392 0-460.04224 6.47168-460.04224 34.2016C59.51488 1001.51296 265.48224 1024 519.55712 1024c254.11584 0 460.0832-22.48704 460.0832-50.23744 0-14.04928-52.75648-26.7264-137.76896-35.79904z"
    fill="#B7CED2" p-id="7914"></path>
  <path
    d="M400.32256 236.48256c-8.76544 0-14.6432-5.8368-14.6432-14.6432V148.60288c0-8.8064 5.87776-14.6432 14.6432-14.6432 8.8064 0 14.68416 5.8368 14.68416 14.6432v73.23648c0 8.8064-5.87776 14.6432-14.68416 14.6432zM251.5968 262.84032c-5.8368 0-11.6736-2.88768-13.16864-8.76544l-27.83232-67.35872c-2.92864-7.35232 0-16.11776 7.31136-19.08736 7.35232-2.88768 16.11776 0 19.0464 7.31136l27.83232 67.39968c2.9696 7.31136 0 16.11776-7.31136 19.0464-1.47456 1.45408-4.4032 1.45408-5.87776 1.45408zM128.55296 353.6896a15.74912 15.74912 0 0 1-10.24-4.36224l-54.19008-48.35328a15.6672 15.6672 0 0 1-1.47456-20.52096 15.7696 15.7696 0 0 1 20.52096-1.47456l54.19008 48.39424a15.70816 15.70816 0 0 1 1.47456 20.48c-1.47456 4.38272-5.87776 5.8368-10.28096 5.8368zM98.54976 495.12448h-2.92864l-71.80288-14.6432a15.2576 15.2576 0 0 1-11.71456-17.63328 15.23712 15.23712 0 0 1 17.59232-11.6736l71.76192 14.6432a15.1552 15.1552 0 0 1 11.71456 17.59232c-1.41312 5.8368-7.29088 11.71456-14.62272 11.71456zM26.80832 650.40384c-8.8064 0-14.68416-5.87776-14.68416-14.68416 0-8.76544 5.87776-14.60224 14.68416-14.60224h73.23648c8.8064 0 14.6432 5.8368 14.6432 14.60224 0 8.8064-5.8368 14.68416-14.6432 14.68416H26.80832zM557.83424 262.84032c-1.4336 0-4.36224 0-5.8368-1.4336-7.31136-2.92864-11.71456-11.71456-7.31136-19.0464l27.83232-67.39968c2.92864-7.31136 11.71456-10.19904 19.0464-7.31136 7.31136 2.9696 11.71456 11.71456 7.31136 19.08736l-26.35776 67.35872a16.09728 16.09728 0 0 1-14.68416 8.74496zM680.91904 353.6896a13.37344 13.37344 0 0 1-10.28096-4.36224c-5.8368-5.87776-4.36224-14.6432 1.47456-20.52096l54.19008-48.35328c5.87776-5.8368 14.66368-4.4032 20.52096 1.47456 5.87776 5.8368 4.42368 14.68416-1.41312 20.52096l-54.23104 48.31232c-2.94912 1.47456-5.89824 2.92864-10.26048 2.92864zM710.92224 495.12448c-7.31136 0-13.2096-4.4032-14.6432-11.71456-1.47456-7.31136 2.92864-16.11776 11.71456-17.59232l71.76192-14.6432c7.35232-1.4336 16.11776 2.92864 17.55136 11.6736 1.45408 7.35232-2.94912 16.15872-11.6736 17.63328l-71.80288 14.6432c-1.47456-1.47456-1.47456 0-2.90816 0zM396.5952 722.35008H391.168a8.11008 8.11008 0 0 0-8.0896 8.0896v5.44768c0 4.44416 3.64544 8.11008 8.0896 8.11008h5.44768a8.13056 8.13056 0 0 0 8.0896-8.11008v-5.44768a8.15104 8.15104 0 0 0-8.11008-8.0896z m2.68288-270.0288h-10.79296a5.38624 5.38624 0 0 0-5.40672 5.40672v237.64992c0 2.99008 2.39616 5.40672 5.40672 5.40672h10.79296a5.36576 5.36576 0 0 0 5.40672-5.40672V457.728a5.36576 5.36576 0 0 0-5.40672-5.40672z"
    fill="#107792" p-id="7915"></path>
  <path
    d="M738.9184 537.3952c-59.16672 2.29376-113.62304 27.2384-153.35424 70.26688-38.58432 41.75872-58.55232 95.72352-56.27904 151.9616 2.8672 70.20544 39.66976 130.99008 94.53568 167.89504H124.55936c-12.63616 0-21.07392 7.08608-21.07392 17.75616s8.43776 17.79712 21.07392 17.79712H719.0528c9.3184 1.18784 18.75968 2.00704 28.42624 2.00704 2.90816 0 5.81632-0.06144 8.76544-0.16384 59.1872-2.31424 113.64352-27.25888 153.35424-70.28736a210.20672 210.20672 0 0 0 56.23808-151.98208c-4.77184-118.04672-105.49248-209.12128-226.9184-205.25056z m155.62752 343.3472c-36.00384 38.99392-85.4016 61.62432-139.10016 63.6928-110.22336 5.07904-201.35936-78.88896-205.68064-185.6512-2.06848-50.76992 15.9744-99.49184 50.83136-137.216 36.02432-38.99392 85.42208-61.62432 139.12064-63.67232 2.68288-0.12288 5.38624-0.16384 8.04864-0.16384 106.57792 0 193.37216 81.59232 197.59104 185.77408a189.72672 189.72672 0 0 1-50.81088 137.23648z"
    fill="#107792" p-id="7916"></path>
  <path
    d="M811.23328 899.72736a10.24 10.24 0 0 1-6.12352-18.432l37.49888-28.11904H633.79456a10.24 10.24 0 0 1 0-20.48h239.5136c4.4032 0 8.31488 2.82624 9.728 7.00416a10.28096 10.28096 0 0 1-3.584 11.44832l-62.07488 46.55104a10.36288 10.36288 0 0 1-6.144 2.02752zM690.76992 799.76448l-98.4064-0.04096a10.28096 10.28096 0 0 1-9.64608-6.7584 10.28096 10.28096 0 0 1 3.09248-11.3664l66.80576-55.3984a10.24 10.24 0 1 1 13.08672 15.74912L620.7488 779.264l70.02112 0.02048a10.24 10.24 0 0 1 0 20.48z"
    fill="#107792" p-id="7917"></path>
  <path
    d="M756.03968 787.39456c0 5.67296-7.39328 10.24-16.60928 10.24-9.23648 0-16.67072-4.56704-16.67072-10.24v-92.672c0-5.632 7.43424-10.19904 16.67072-10.19904 9.19552 0 16.60928 4.56704 16.60928 10.19904v92.672z"
    fill="#A2E7F6" p-id="7918"></path>
  <path
    d="M739.4304 807.87456c-15.33952 0-26.91072-8.8064-26.91072-20.48v-92.672c0-11.65312 11.5712-20.43904 26.91072-20.43904 15.29856 0 26.84928 8.78592 26.84928 20.43904v92.672c0 11.69408-11.53024 20.48-26.84928 20.48z m-5.65248-21.05344c1.024 0 3.01056 0.57344 5.65248 0.57344 3.8912 0 6.38976-1.26976 6.90176-1.86368l-0.53248-90.78784c0 1.24928-2.4576 0-6.36928 0-3.95264 0-6.47168 1.29024-7.00416 1.88416l0.55296 90.74688c0.02048-0.4096 0.3072-0.55296 0.79872-0.55296z"
    fill="#107792" p-id="7919"></path>
  <path
    d="M897.16736 787.39456c0 5.67296-7.4752 10.24-16.62976 10.24-9.19552 0-16.65024-4.56704-16.65024-10.24v-92.672c0-5.632 7.45472-10.19904 16.65024-10.19904 9.13408 0 16.62976 4.56704 16.62976 10.19904v92.672z"
    fill="#A2E7F6" p-id="7920"></path>
  <path
    d="M880.5376 807.87456c-15.33952 0-26.89024-8.8064-26.89024-20.48v-92.672c0-11.65312 11.55072-20.43904 26.89024-20.43904 15.31904 0 26.86976 8.78592 26.86976 20.43904v92.672c0 11.69408-11.55072 20.48-26.86976 20.48z m-5.632-21.05344c1.024 0 3.01056 0.57344 5.632 0.57344 3.91168 0 6.38976-1.29024 6.94272-1.90464l-0.55296-90.74688c0 1.24928-2.47808 0-6.38976 0-3.93216 0-6.4512 1.29024-6.98368 1.90464l0.55296 90.7264c0.02048-0.4096 0.28672-0.55296 0.79872-0.55296z"
    fill="#107792" p-id="7921"></path>
  <path
    d="M826.59328 781.27104c0 9.0112-7.4752 16.36352-16.62976 16.36352a16.50688 16.50688 0 0 1-16.67072-16.36352v-148.39808c0-9.03168 7.4752-16.36352 16.67072-16.36352 9.15456 0 16.62976 7.29088 16.62976 16.36352v148.39808z"
    fill="#A2E7F6" p-id="7922"></path>
  <path
    d="M809.96352 807.87456a26.78784 26.78784 0 0 1-26.91072-26.60352v-148.39808c0-14.66368 12.0832-26.60352 26.91072-26.60352 14.82752 0 26.86976 11.93984 26.86976 26.60352v148.39808c0 14.66368-12.06272 26.60352-26.86976 26.60352z m0-181.10464a6.26688 6.26688 0 0 0-6.43072 6.12352v148.39808c0 3.3792 2.88768 6.12352 6.43072 6.12352a6.26688 6.26688 0 0 0 6.38976-6.12352v-148.39808a6.2464 6.2464 0 0 0-6.38976-6.12352zM509.2352 806.68672H176.59904V514.51904c0-47.84128 19.12832-93.96224 50.9952-126.44352 39.79264-35.88096 78.00832-58.08128 165.60128-58.08128h4.79232c93.96224 1.72032 135.39328 22.20032 172.032 58.08128 31.86688 30.76096 50.93376 76.88192 50.93376 124.7232v22.56896a205.94688 205.94688 0 0 1 35.06176-11.03872v-9.80992c0-56.40192-22.30272-112.76288-62.11584-150.36416-46.20288-44.4416-86.44608-68.36224-183.6032-68.36224-3.19488-1.67936-15.52384 0-17.12128 0-97.15712 0-141.7216 25.64096-186.32704 68.36224-39.8336 37.60128-62.11584 93.96224-62.11584 150.36416v304.16896c0 13.63968 11.12064 25.6 23.87968 25.6h360.96a212.45952 212.45952 0 0 1-20.33664-37.60128z"
    fill="#107792" p-id="7923"></path>
</svg>
